Coordinates
version=1
nRows=19
nColumns=36
inDegrees=yes

Units are S.I. units (second, meters, Newtons, ...)
If the header above contains a line with 'inDegrees', this indicates whether rotational values are in degrees (yes) or radians (no).

endheader
time	pelvis_tilt	pelvis_list	pelvis_rotation	pelvis_tx	pelvis_ty	pelvis_tz	hip_flexion_r	hip_adduction_r	hip_rotation_r	knee_angle_r	knee_angle_r_beta	ankle_angle_r	subtalar_angle_r	mtp_angle_r	hip_flexion_l	hip_adduction_l	hip_rotation_l	knee_angle_l	knee_angle_l_beta	ankle_angle_l	subtalar_angle_l	mtp_angle_l	lumbar_extension	lumbar_bending	lumbar_rotation	arm_flex_r	arm_add_r	arm_rot_r	elbow_flex_r	pro_sup_r	arm_flex_l	arm_add_l	arm_rot_l	elbow_flex_l	pro_sup_l
      1.81000000	    -29.60760686	      1.54631694	     -0.36537602	     -0.29322918	      0.71249568	     -0.59192196	     80.17013124	      0.24518281	      3.15560258	     79.85746184	      1.39377564	     20.74615057	    -11.62935646	     -7.49664189	     79.79478859	     -6.45161522	      1.53212483	     76.95156226	      1.34305813	     23.46425677	     -0.34803341	     -7.49664189	    -33.18817232	      9.31651144	      1.60798383	     21.07449998	    -38.55386999	     15.85833215	     66.49850567	    107.08373844	     24.39036921	    -37.87944515	     17.66949732	     60.91800067	    104.39248273
      1.82000000	    -29.94119493	      1.41128350	     -0.52209560	     -0.29051385	      0.71462135	     -0.59106199	     79.86290894	      0.33674337	      2.83584505	     79.17113400	      1.38179696	     20.89451514	    -11.46251781	     -7.49675049	     79.53216041	     -6.47846777	      1.86045215	     76.41136972	      1.33362999	     23.71091444	     -0.60125902	     -7.49675049	    -33.28316757	      9.30231166	      1.43851256	     17.00432281	    -38.74055850	     14.41615632	     66.02603259	    107.16438012	     19.79053845	    -37.58603266	     15.85410640	     59.87490156	    104.24551342
      1.83000000	    -30.33267557	      1.39772014	     -0.62432987	     -0.28800314	      0.71667562	     -0.59041199	     79.60908964	      0.32807640	      2.66789916	     78.42860669	      1.36883741	     21.02156008	    -11.39333720	     -7.49677349	     79.31331993	     -6.48313703	      1.98704633	     75.79567362	      1.32288406	     23.86161479	     -0.71248971	     -7.49677349	    -33.15753564	      9.21298176	      1.05513367	     13.17658649	    -39.16957579	     14.15992806	     65.27743201	    107.14283091	     15.41514329	    -37.71392210	     15.68294811	     58.53881822	    104.14181753
      1.84000000	    -30.78793597	      1.33495753	     -0.62607985	     -0.28553056	      0.71811765	     -0.59012826	     79.55086070	      0.13716618	      2.37067618	     77.95392675	      1.36055269	     21.42963111	    -10.73699236	     -7.49688900	     79.32352769	     -6.40640189	      2.15170189	     75.40681757	      1.31609725	     23.78974979	     -1.00645565	     -7.49688900	    -33.13102130	      9.21419117	      0.70792003	      7.98905131	    -39.04015609	     10.99358372	     65.92880287	    107.19106289	      9.91444480	    -36.73739023	     11.89721263	     58.47365830	    104.12241685
      1.85000000	    -31.18103984	      1.28992810	     -0.81566117	     -0.28302767	      0.71980667	     -0.58922322	     79.41546477	      0.17840103	      2.13604197	     77.37572423	      1.35046115	     21.62844329	    -10.24575375	     -7.49699829	     79.21153606	     -6.60131429	      2.22879078	     74.97016562	      1.30847623	     23.82684134	     -1.04280111	     -7.49699829	    -33.06941751	      9.06259778	      0.33809560	      3.25953354	    -39.01034621	      9.13270234	     66.33367062	    107.23458303	      4.59655815	    -36.16684034	      9.92455493	     58.14616548	    104.22917622
      1.86000000	    -31.56909503	      1.32574149	     -1.16429146	     -0.28073527	      0.72144965	     -0.58770809	     79.35120398	      0.44709566	      2.06341998	     76.82144627	      1.34078717	     21.59327886	     -9.90609560	     -7.49708901	     79.10518336	     -7.03832992	      2.11109605	     74.55827229	      1.30128734	     23.89016921	     -0.91124297	     -7.49708901	    -32.98858157	      8.68517796	      0.03627733	     -1.54985192	    -38.77479069	      7.15160751	     66.76164878	    107.11647419	     -0.76197696	    -35.58114003	      8.31106280	     58.06240478	    104.22526763
      1.87000000	    -32.12003297	      1.39790896	     -1.56951987	     -0.27880308	      0.72269617	     -0.58611164	     79.52457240	      0.79262512	      2.03818660	     76.28577921	      1.33143802	     21.52078971	     -9.69360784	     -7.49711915	     79.24028899	     -7.57452931	      1.85861504	     74.21554272	      1.29530558	     23.91729657	     -0.90409213	     -7.49711915	    -32.51951185	      8.27186361	     -0.32920065	     -5.90730157	    -38.68529531	      6.37683079	     66.47917659	    107.01391970	     -5.81577526	    -35.17494969	      8.04262059	     57.48502741	    104.15877158
      1.88000000	    -32.28776039	      1.30320315	     -1.74282653	     -0.27683695	      0.72456520	     -0.58502180	     79.26780666	      0.83607559	      1.66488679	     75.80120137	      1.32298054	     21.45233883	     -9.36181721	     -7.49722309	     79.05025143	     -7.87139774	      1.88608108	     73.88592409	      1.28955265	     23.80669663	     -0.75803237	     -7.49722309	    -32.78469054	      8.09470911	     -0.41897771	    -11.31096857	    -37.93818670	      3.01619512	     67.44143822	    106.76488915	    -11.10248162	    -33.88926706	      5.26666764	     58.68539057	    103.97893149
      1.89000000	    -32.35621096	      0.92344263	     -1.91450485	     -0.27477947	      0.72694437	     -0.58348144	     78.74924191	      1.12380057	      1.11572846	     75.09922962	      1.31072882	     21.32465199	     -9.30232272	     -7.49730627	     78.81596141	     -8.34426590	      2.18038469	     73.54504806	      1.28360324	     23.71302421	     -0.46570571	     -7.49730627	    -33.04234024	      8.18671704	     -0.49122256	    -16.11044529	    -37.38916660	      1.00821248	     68.24020798	    106.67718502	    -15.91038273	    -32.79621575	      3.95539407	     59.48757615	    103.85806525
      1.90000000	    -32.45495705	      0.61692147	     -2.12634228	     -0.27300338	      0.72913068	     -0.58163567	     78.34098924	      1.48915001	      0.67822417	     74.48522668	      1.30001245	     21.05454116	     -9.38830313	     -7.49738439	     78.67098201	     -8.89010876	      2.34002306	     73.27116687	      1.27882311	     23.57741441	     -0.18004172	     -7.49738439	    -33.17540112	      8.15745370	     -0.54818909	    -20.76445690	    -36.65576567	     -1.01017254	     69.15955736	    106.58761919	    -20.54231755	    -31.66303876	      2.94819085	     60.49482097	    103.78776764
      1.91000000	    -32.77406104	      0.55343574	     -2.34644309	     -0.27187178	      0.73055665	     -0.57996732	     78.34788065	      1.79466271	      0.53660770	     74.00891876	      1.29169931	     20.68614437	     -9.42055400	     -7.49744847	     78.77696078	     -9.29916941	      2.32020752	     73.00886707	      1.27424511	     23.25801962	     -0.01866293	     -7.49744847	    -32.91599705	      7.88382567	     -0.66795342	    -25.33348977	    -35.74251221	     -3.00756280	     70.15394267	    106.45113429	    -25.02798054	    -30.45731174	      2.03499231	     61.79123663	    103.74073300
      1.92000000	    -33.03808132	      0.68936352	     -2.51620980	     -0.27075022	      0.73196595	     -0.57886177	     78.35640280	      1.92445100	      0.62871113	     73.62991471	      1.28508444	     20.43680144	     -9.34635457	     -7.49752087	     78.79662044	     -9.52359096	      2.12055708	     72.77175168	      1.27010667	     22.84690085	     -0.01477760	     -7.49752087	    -32.66436162	      7.51705863	     -0.83836082	    -29.74619579	    -34.56275526	     -5.32345713	     71.27032619	    106.26127056	    -29.17531256	    -29.00618416	      0.91344300	     63.14902840	    103.47661635
      1.93000000	    -33.11796819	      1.02516483	     -2.51494732	     -0.26945357	      0.73390898	     -0.57843004	     78.19940967	      1.66630395	      0.76703594	     73.32498956	      1.27976249	     20.30720528	     -9.07582404	     -7.49756223	     78.56044972	     -9.39762239	      1.81941014	     72.46606725	      1.26477147	     22.28236988	      0.06086948	     -7.49756223	    -32.53706417	      7.05595063	     -1.28192015	    -33.67051343	    -33.44208667	     -7.13787615	     72.45467488	    106.17392021	    -33.00071530	    -27.58425563	      0.00010684	     64.65936948	    103.20864944
      1.94000000	    -32.96149679	      1.28622750	     -2.45271693	     -0.26795490	      0.73648657	     -0.57800661	     77.69227284	      1.40824679	      0.89850497	     72.92225726	      1.27273349	     20.41494403	     -8.59196526	     -7.49829461	     78.07539240	     -9.22837520	      1.61200363	     72.10919229	      1.25854283	     21.59967864	     -0.18462970	     -7.49829461	    -32.79276758	      6.76895542	     -1.25105486	    -37.81093581	    -31.38905749	    -10.64462892	     73.90709667	    106.07485680	    -36.02077566	    -26.19903493	     -0.49951007	     66.55252669	     97.96360151
      1.95000000	    -33.05722952	      1.55118185	     -2.40401929	     -0.26701211	      0.73822138	     -0.57711282	     77.57940050	      1.31949552	      1.14027599	     72.65611883	      1.26808850	     20.28191252	     -8.44801366	     -7.49831869	     78.02382472	     -9.14508316	      1.43309125	     71.91318193	      1.25512180	     20.76105974	      0.02620430	     -7.49831869	    -32.61611562	      6.32445876	     -1.76987371	    -40.84557223	    -29.88061515	    -12.56002784	     75.12086722	    106.02753372	    -39.53230595	    -24.58780565	     -1.69589444	     68.31515661	     97.98169090
      1.96000000	    -33.06613113	      1.65308676	     -2.41662481	     -0.26609686	      0.74003795	     -0.57598018	     77.31241195	      1.42327557	      1.30472558	     72.28815487	      1.26166631	     20.15191602	     -8.39580139	     -7.49836098	     77.96723074	     -9.20282277	      1.36931926	     71.79826275	      1.25311608	     19.95224576	     -0.11101399	     -7.49836098	    -32.65771853	      6.01222768	     -1.93124245	    -43.52122104	    -27.84614297	    -15.04783647	     76.19137080	    105.90123458	    -42.51734677	    -22.51114222	     -3.63943622	     70.03914497	     97.77727434
      1.97000000	    -33.18311283	      1.77677123	     -2.36446908	     -0.26541918	      0.74148961	     -0.57490578	     77.23471671	      1.46078070	      1.47752642	     72.02858827	      1.25713602	     20.00884363	     -8.37407933	     -7.49838215	     78.12063269	     -9.22791010	      1.27870737	     71.77031705	      1.25262834	     19.00515627	      0.09594587	     -7.49838215	    -32.55295339	      5.71262370	     -2.20737530	    -45.56308294	    -25.85687110	    -16.94819541	     77.11406405	    105.77837360	    -45.23956290	    -20.68633964	     -5.08565652	     71.54749274	     97.67489508
      1.98000000	    -33.13087315	      1.88825063	     -2.26173352	     -0.26464412	      0.74328144	     -0.57409117	     76.94423625	      1.41163988	      1.61146648	     71.74545016	      1.25219433	     19.84234752	     -8.37227924	     -7.49840604	     78.08849885	     -9.19458764	      1.15345609	     71.75102928	      1.25229170	     18.22358652	      0.09696811	     -7.49840604	    -32.75290222	      5.47070259	     -2.41431236	    -47.01964289	    -23.60728795	    -19.28771724	     77.89797904	    105.55798895	    -47.34282381	    -18.58504330	     -7.00528689	     72.90183081	     97.47867123
      1.99000000	    -33.26996760	      1.95422441	     -2.17614479	     -0.26395236	      0.74477735	     -0.57331005	     76.77547974	      1.46106605	      1.82163411	     71.30112602	      1.24443941	     19.73514572	     -8.32949145	     -7.49841875	     78.26546044	     -9.22632343	      1.04084426	     71.73804443	      1.25206507	     17.63047190	      0.22969048	     -7.49841875	    -32.69291488	      5.29921504	     -2.84358322	    -47.59352069	    -21.86290210	    -20.96902097	     78.42564105	    105.40024774	    -48.95209897	    -16.71931303	     -7.83405225	     73.64101567	     97.34859308
